# xmcd
# 
# Track frame offsets:
#     150
#     4806
#     117684
# 
# Disc length: 3299
# 
# Revision: 0
# Processed by: cddbd v1.5.2PL0 Copyright (c) Steve Scherf et al.
# Submitted via: fre:ac v1.0.17
# 
DISCID=210ce103
DTITLE=Terry Brooks - Bearers of The Black Staff
DYEAR=2010
DGENRE=Audio Book
TTITLE0=014
TTITLE1=015
TTITLE2=016
EXTD=
EXTT0=
EXTT1=
EXTT2=
PLAYORDER=
